<svg width="184" height="36" viewBox="0 0 184 36" fill="none" xmlns="http://www.w3.org/2000/svg">
<path d="M147.706 9.28264C147.696 9.24664 147.678 9.21544 147.665 9.18064C147.643 9.11596 147.615 9.05333 147.581 8.99344C147.522 8.90729 147.458 8.82511 147.388 8.74744C147.354 8.71666 147.319 8.68781 147.283 8.66104C147.251 8.63207 147.218 8.60483 147.183 8.57943L147.131 8.55543L147.089 8.52663L139.917 4.9266C139.751 4.84337 139.568 4.80004 139.383 4.80004C139.197 4.80004 139.014 4.84337 138.849 4.9266L131.677 8.52663L131.635 8.55543L131.582 8.57943C131.548 8.60483 131.515 8.63207 131.483 8.66104C131.395 8.72231 131.319 8.80013 131.259 8.89024C131.232 8.92324 131.207 8.95769 131.183 8.99344C131.15 9.05337 131.123 9.11599 131.1 9.18064C131.089 9.21544 131.069 9.24664 131.06 9.28264C131.031 9.38617 131.016 9.49313 131.016 9.60064V16.0591L126.234 18.4591V4.8006C126.234 4.69309 126.219 4.58613 126.19 4.4826C126.181 4.4466 126.163 4.4154 126.15 4.3806C126.127 4.31591 126.099 4.25328 126.066 4.1934C126.043 4.15768 126.017 4.12323 125.991 4.0902C125.931 4.00009 125.855 3.92227 125.767 3.86099C125.735 3.83203 125.702 3.80479 125.668 3.77939L125.615 3.75539L125.573 3.72659L118.401 0.12656C118.236 0.0433294 118.053 0 117.867 0C117.682 0 117.499 0.0433294 117.333 0.12656L110.161 3.72659L110.119 3.75539L110.067 3.77939C110.032 3.80479 109.999 3.83203 109.967 3.86099C109.931 3.88777 109.896 3.91661 109.862 3.94739C109.819 3.99181 109.779 4.03955 109.743 4.0902C109.716 4.12323 109.691 4.15768 109.667 4.1934C109.635 4.25332 109.607 4.31595 109.585 4.3806C109.573 4.4154 109.554 4.4466 109.544 4.4826C109.515 4.58613 109.5 4.69309 109.5 4.8006V27.6008C109.5 27.8236 109.562 28.042 109.679 28.2314C109.796 28.4209 109.962 28.574 110.161 28.6736L124.505 35.8737C124.521 35.8821 124.541 35.8797 124.56 35.8869C124.709 35.9613 124.873 36 125.039 36C125.205 36 125.369 35.9613 125.518 35.8869C125.536 35.8797 125.557 35.8821 125.573 35.8749L139.917 28.6748C140.116 28.5751 140.283 28.4218 140.4 28.2321C140.516 28.0424 140.578 27.8238 140.578 27.6008V21.1423L147.089 17.8735C147.288 17.7739 147.454 17.6208 147.571 17.4313C147.688 17.2419 147.75 17.0235 147.75 16.8007V9.60064C147.75 9.49313 147.735 9.38617 147.706 9.28264ZM120.54 24.0008L125.573 21.4735H125.575L132.211 18.1423L136.71 20.4007L125.039 26.2592L120.54 24.0008ZM138.188 13.9423V18.4591L133.406 16.0591V11.5423L138.188 13.9423ZM139.383 7.34222L143.882 9.60064L139.383 11.8591L134.884 9.60064L139.383 7.34222ZM119.063 22.0592V9.14224L123.844 6.74222V19.6591L119.063 22.0592ZM117.867 2.54218L122.366 4.8006L117.867 7.05902L113.368 4.8006L117.867 2.54218ZM111.891 6.74222L116.672 9.14224V29.2592L111.891 26.8592V6.74222ZM119.063 25.9424L123.844 28.3424V32.8592L119.063 30.4592V25.9424ZM138.188 26.8592L126.234 32.8592V28.3424L138.188 22.3424V26.8592ZM145.359 16.0591L140.578 18.4591V13.9423L145.359 11.5423V16.0591Z" fill="#FF5252"/>
<path d="M20.25 21.6708C22.2867 21.6708 23.9377 20.0274 23.9377 18C23.9377 15.9727 22.2867 14.3292 20.25 14.3292C18.2133 14.3292 16.5623 15.9727 16.5623 18C16.5623 20.0274 18.2133 21.6708 20.25 21.6708Z" fill="#61DAFB"/>
<path d="M34.2568 11.9463C33.5451 11.6887 32.8011 11.4311 32.0248 11.2057C32.2188 10.4329 32.3806 9.66011 32.51 8.9195C33.1893 4.66905 32.4453 1.67442 30.375 0.515206C29.7604 0.161002 29.0811 0 28.3047 0C26.0403 0 23.1613 1.67442 20.25 4.47585C17.3387 1.67442 14.4597 0 12.1953 0C11.4189 0 10.7396 0.161002 10.125 0.515206C8.05471 1.70662 7.3107 4.70125 7.99002 8.9195C8.11941 9.66011 8.28115 10.4329 8.47524 11.2057C7.69888 11.4311 6.95487 11.6565 6.24321 11.9463C2.19968 13.492 0 15.6172 0 18C0 20.3828 2.23203 22.5081 6.24321 24.0537C6.95487 24.3113 7.69888 24.5689 8.47524 24.7943C8.28115 25.5671 8.11941 26.3399 7.99002 27.0805C7.3107 31.3309 8.05471 34.3256 10.125 35.4848C10.7396 35.839 11.4189 36 12.1953 36C14.492 36 17.371 34.3256 20.25 31.5242C23.1613 34.3256 26.0403 36 28.3047 36C29.0811 36 29.7604 35.839 30.375 35.4848C32.4453 34.2934 33.1893 31.2987 32.51 27.0805C32.3806 26.3399 32.2188 25.5671 32.0248 24.7943C32.8011 24.5689 33.5451 24.3435 34.2568 24.0537C38.3003 22.5081 40.5 20.3828 40.5 18C40.5 15.6172 38.3003 13.492 34.2568 11.9463ZM29.4692 2.12522C30.7955 2.89803 31.2484 5.28086 30.6985 8.6619C30.6014 9.3381 30.4397 10.0465 30.2456 10.7871C28.5635 10.4007 26.7843 10.1431 24.9081 9.98211C23.8083 8.43649 22.6761 7.05188 21.5439 5.79606C23.9377 3.44544 26.3638 1.83542 28.3371 1.83542C28.7576 1.83542 29.1458 1.93202 29.4692 2.12522ZM25.8462 21.22C25.264 22.2504 24.5847 23.2809 23.873 24.3113C22.6761 24.4079 21.4792 24.4401 20.25 24.4401C18.9884 24.4401 17.7915 24.4079 16.627 24.3113C15.9153 23.2809 15.2684 22.2504 14.6861 21.22C14.0715 20.1574 13.4892 19.0626 12.9716 18C13.4892 16.9374 14.0715 15.8426 14.6861 14.78C15.2684 13.7496 15.9477 12.7191 16.6593 11.6887C17.8562 11.5921 19.0531 11.5599 20.2823 11.5599C21.5439 11.5599 22.7408 11.5921 23.9054 11.6887C24.617 12.7191 25.264 13.7496 25.8462 14.78C26.4609 15.8426 27.0431 16.9374 27.5607 18C27.0108 19.0626 26.4609 20.1252 25.8462 21.22ZM28.5311 20.1574C29.0164 21.2844 29.4046 22.3792 29.7604 23.4741C28.6605 23.7317 27.496 23.9249 26.2668 24.0859C26.655 23.4741 27.0755 22.8301 27.4313 22.1538C27.8195 21.4776 28.1753 20.8014 28.5311 20.1574ZM20.25 28.8837C19.4736 28.0465 18.7296 27.1449 18.018 26.2111C18.762 26.2433 19.506 26.2755 20.25 26.2755C20.994 26.2755 21.738 26.2433 22.482 26.2111C21.7704 27.1449 21.0264 28.0465 20.25 28.8837ZM14.2332 24.0537C13.004 23.8927 11.8395 23.6995 10.7396 23.4419C11.0954 22.3792 11.4836 21.2522 11.9688 20.1252C12.3247 20.7692 12.6805 21.4454 13.0687 22.0894C13.4569 22.7979 13.845 23.4097 14.2332 24.0537ZM11.9688 15.8426C11.4836 14.7156 11.0954 13.6208 10.7396 12.5259C11.8395 12.2683 13.004 12.0751 14.2332 11.9141C13.845 12.5259 13.4245 13.1699 13.0687 13.8462C12.6805 14.5224 12.3247 15.1986 11.9688 15.8426ZM20.25 7.11628C21.0264 7.95349 21.7704 8.8551 22.482 9.78891C21.738 9.75671 20.994 9.72451 20.25 9.72451C19.506 9.72451 18.762 9.75671 18.018 9.78891C18.7296 8.8551 19.4736 7.95349 20.25 7.11628ZM27.4313 13.8784L26.2668 11.9463C27.496 12.1073 28.6605 12.3005 29.7604 12.5581C29.4046 13.6208 29.0164 14.7478 28.5311 15.8748C28.1753 15.1986 27.8195 14.5224 27.4313 13.8784ZM9.80152 8.6619C9.2516 5.28086 9.70447 2.89803 11.0308 2.12522C11.3542 1.93202 11.7424 1.83542 12.1629 1.83542C14.1038 1.83542 16.53 3.41324 18.9561 5.79606C17.8239 7.01968 16.6917 8.43649 15.5919 9.98211C13.7157 10.1431 11.9365 10.4329 10.2544 10.7871C10.0603 10.0465 9.93091 9.3381 9.80152 8.6619ZM1.8115 18C1.8115 16.4866 3.65535 14.8766 6.89018 13.6852C7.53714 13.4275 8.2488 13.2021 8.96046 13.0089C9.47803 14.619 10.125 16.3256 10.9014 18.0322C10.125 19.7388 9.44569 21.4132 8.96046 23.0233C4.49641 21.7352 1.8115 19.8032 1.8115 18ZM11.0308 33.8748C9.70447 33.102 9.2516 30.7191 9.80152 27.3381C9.89856 26.6619 10.0603 25.9535 10.2544 25.2129C11.9365 25.5993 13.7157 25.8569 15.5919 26.0179C16.6917 27.5635 17.8239 28.9481 18.9561 30.2039C16.5623 32.5546 14.1362 34.1646 12.1629 34.1646C11.7424 34.1646 11.3542 34.068 11.0308 33.8748ZM30.6985 27.3381C31.2484 30.7191 30.7955 33.102 29.4692 33.8748C29.1458 34.068 28.7576 34.1646 28.3371 34.1646C26.3962 34.1646 23.97 32.5868 21.5439 30.2039C22.6761 28.9803 23.8083 27.5635 24.9081 26.0179C26.7843 25.8569 28.5635 25.5671 30.2456 25.2129C30.4397 25.9535 30.5691 26.6619 30.6985 27.3381ZM33.6098 22.3148C32.9629 22.5725 32.2512 22.7979 31.5395 22.9911C31.022 21.381 30.375 19.6744 29.5986 17.9678C30.375 16.2612 31.0543 14.5868 31.5395 12.9767C36.0036 14.2648 38.6885 16.1968 38.6885 18C38.6885 19.5134 36.8123 21.1234 33.6098 22.3148Z" fill="#61DAFB"/>
<path d="M75 4.5C68.9999 4.5 65.2512 7.49898 63.75 13.4994C65.9993 10.5001 68.6251 9.37537 71.6243 10.1253C73.3368 10.5521 74.5605 11.7939 75.9158 13.17C78.1215 15.4085 80.6746 18 86.25 18C92.2498 18 95.9988 15.0007 97.5 8.99883C95.25 11.9997 92.6251 13.125 89.6254 12.3747C87.9132 11.9475 86.6909 10.7061 85.3338 9.33002C83.1295 7.0915 80.5772 4.5 75 4.5ZM63.75 18C57.7502 18 54.0012 20.9993 52.5 27.0012C54.7498 24.0003 57.3745 22.875 60.3743 23.6253C62.0868 24.0525 63.3105 25.2939 64.6658 26.67C66.8715 28.9085 69.4246 31.5 75 31.5C80.9998 31.5 84.7488 28.501 86.25 22.5006C84 25.5 81.3751 26.6247 78.3754 25.8747C76.6632 25.4479 75.4409 24.2061 74.0838 22.83C71.8795 20.5915 69.3272 18 63.75 18Z" fill="#38BDF8"/>
<path d="M165.75 0H171.75V12H165.75C164.159 12 162.633 11.3679 161.507 10.2426C160.382 9.11742 159.75 7.5913 159.75 6C159.75 4.4087 160.382 2.88258 161.507 1.75736C162.633 0.632141 164.159 0 165.75 0Z" fill="#F4511E"/>
<path d="M177.75 12H171.75V0H177.75C179.341 0 180.867 0.632141 181.993 1.75736C183.118 2.88258 183.75 4.4087 183.75 6C183.75 7.5913 183.118 9.11742 181.993 10.2426C180.867 11.3679 179.341 12 177.75 12Z" fill="#FF8A65"/>
<path d="M171.75 18C171.75 21.3137 174.436 24 177.75 24C181.064 24 183.75 21.3137 183.75 18C183.75 14.6863 181.064 12 177.75 12C174.436 12 171.75 14.6863 171.75 18Z" fill="#29B6F6"/>
<path d="M165.75 12H171.75V24H165.75C164.159 24 162.633 23.3679 161.507 22.2426C160.382 21.1174 159.75 19.5913 159.75 18C159.75 16.4087 160.382 14.8826 161.507 13.7574C162.633 12.6321 164.159 12 165.75 12Z" fill="#7C4DFF"/>
<path d="M165.75 24H171.75V30C171.75 31.5913 171.118 33.1174 169.993 34.2426C168.867 35.3679 167.341 36 165.75 36C164.159 36 162.633 35.3679 161.507 34.2426C160.382 33.1174 159.75 31.5913 159.75 30C159.75 28.4087 160.382 26.8826 161.507 25.7574C162.633 24.6321 164.159 24 165.75 24Z" fill="#00E676"/>
</svg>
