<svg width="486" height="152" viewBox="0 0 486 152" fill="none" xmlns="http://www.w3.org/2000/svg">
<mask id="path-1-inside-1_268_56" fill="white">
<path d="M328.252 0C333.651 0 338.352 3.61638 340.063 8.73661C347.631 31.3855 359.743 53.592 366.103 64.5205C368.687 68.9625 373.428 71.5292 378.567 71.5293H473.059C479.686 71.5293 485.059 76.9019 485.059 83.5293V122C485.059 138.569 471.627 152 455.059 152H30C13.4315 152 0 138.569 0 122V30C1.80404e-06 13.4315 13.4315 9.22905e-08 30 0H328.252Z"/>
</mask>
<path d="M328.252 0C333.651 0 338.352 3.61638 340.063 8.73661C347.631 31.3855 359.743 53.592 366.103 64.5205C368.687 68.9625 373.428 71.5292 378.567 71.5293H473.059C479.686 71.5293 485.059 76.9019 485.059 83.5293V122C485.059 138.569 471.627 152 455.059 152H30C13.4315 152 0 138.569 0 122V30C1.80404e-06 13.4315 13.4315 9.22905e-08 30 0H328.252Z" fill="#FFF9EB"/>
<path d="M366.103 64.5205L365.67 64.772L365.67 64.772L366.103 64.5205ZM378.567 71.5293L378.567 72.0293H378.567V71.5293ZM485.059 122L485.559 122V122H485.059ZM30 152L30 152.5H30V152ZM0 30L-0.5 30V30H0ZM30 0L30 -0.5L30 0ZM340.063 8.73661L339.589 8.89508C347.173 31.5927 359.306 53.834 365.67 64.772L366.103 64.5205L366.535 64.269C360.181 53.3499 348.089 31.1783 340.537 8.57815L340.063 8.73661ZM366.103 64.5205L365.67 64.772C368.35 69.377 373.261 72.0292 378.567 72.0293L378.567 71.5293L378.567 71.0293C373.595 71.0292 369.024 68.5479 366.535 64.269L366.103 64.5205ZM378.567 71.5293V72.0293H473.059V71.5293V71.0293H378.567V71.5293ZM485.059 83.5293H484.559V122H485.059H485.559V83.5293H485.059ZM485.059 122L484.559 122C484.559 138.292 471.351 151.5 455.059 151.5V152V152.5C471.903 152.5 485.559 138.845 485.559 122L485.059 122ZM455.059 152V151.5H30V152V152.5H455.059V152ZM30 152L30 151.5C13.7076 151.5 0.5 138.292 0.5 122H0H-0.5C-0.5 138.845 13.1553 152.5 30 152.5L30 152ZM0 122H0.5V30H0H-0.5V122H0ZM0 30L0.5 30C0.500002 13.7076 13.7076 0.5 30 0.5L30 0L30 -0.5C13.1553 -0.5 -0.499998 13.1553 -0.5 30L0 30ZM30 0V0.5H328.252V0V-0.5H30V0ZM473.059 71.5293V72.0293C479.41 72.0293 484.559 77.178 484.559 83.5293H485.059H485.559C485.559 76.6257 479.962 71.0293 473.059 71.0293V71.5293ZM340.063 8.73661L340.537 8.57815C338.763 3.26825 333.881 -0.5 328.252 -0.5V0V0.5C333.421 0.5 337.941 3.96452 339.589 8.89508L340.063 8.73661Z" fill="black" mask="url(#path-1-inside-1_268_56)"/>
</svg>
