<svg width="261" height="52" viewBox="0 0 261 52" fill="none" xmlns="http://www.w3.org/2000/svg">
<path d="M18.0904 28.2792C11.4486 26.8227 7.99501 26.6689 4.87491 20.5262C3.5947 18.0058 2.55643 15.4608 1.7032 12.7731C1.64823 12.5999 0.592396 10.6321 1.17459 10.9523C2.92231 11.9136 4.66084 13.4636 6.25519 14.6526C7.52104 15.5967 12.3811 19.9968 12.3637 19.9388C10.9249 15.1429 10.0804 10.4436 9.74994 5.43119C9.66468 4.13812 9.39066 0.435308 10.0436 1.55466C11.6192 4.2557 12.9212 7.33798 14.0376 10.2475C15.383 13.7535 17.149 17.0127 18.5309 20.4674C19.0296 21.7141 19.0341 21.0565 19.2651 20.115C19.8226 17.8421 21.458 15.5808 23.3765 14.2415C26.9057 11.7777 26.1695 16.5866 25.6966 18.7935C25.1116 21.5233 23.2775 25.2066 21.2621 27.222" stroke="#9AB338" stroke-width="2" stroke-linecap="round"/>
<path d="M236.409 29.8651C237.58 30.7755 241.34 21.0283 241.696 19.8801C242.931 15.8954 244.647 11.5638 244.867 7.36948C245.007 4.71991 244.777 5.80512 245.102 7.89809C245.72 11.8715 246.005 15.2464 244.867 19.1753C244.471 20.5444 242.332 24.1771 243.34 23.1693C244.035 22.4747 246.338 19.234 247.276 19.234C248.177 19.234 246.431 24.4093 248.685 24.1678C255.172 23.4728 258.031 10.976 258.494 5.78362C258.55 5.14916 258.578 0.828102 258.611 3.84536C258.661 8.27201 259.215 12.6924 259.14 17.1195C259.044 22.7585 253.522 25.6404 249.331 28.2792C247.728 29.2889 246.761 30.3937 244.867 30.3937" stroke="#9AB338" stroke-width="2" stroke-linecap="round"/>
<path d="M227.952 28.8078C226.091 27.479 222.724 24.2893 222.724 21.7009C222.724 20.5 228.379 24.5868 228.715 24.4908C229.405 24.2938 230.691 14.1364 232.592 14.7701C235.452 15.7236 234.295 27.0744 234.295 29.8651" stroke="#9AB338" stroke-width="2" stroke-linecap="round"/>
<path d="M133.329 28.2792C124.592 29.499 114.835 29.9006 106.458 32.9781C102.389 34.4727 109.679 34.094 110.305 34.094C116.177 34.094 122.054 34.0265 127.925 34.094C132.988 34.1522 124.425 35.9574 123.285 36.3847C122.907 36.5264 123.998 36.8333 124.401 36.8546C129.947 37.148 135.534 37.0502 141.082 36.9721C144.192 36.9283 149.139 36.1155 152.359 36.8546C153.559 37.1299 150.554 38.5517 149.511 39.204C148.646 39.7447 141.08 42.9805 144.606 43.0805C149.649 43.2236 154.714 43.0805 159.76 43.0805" stroke="#9AB338" stroke-width="2" stroke-linecap="round"/>
<path d="M101.612 39.9088C99.2685 37.5654 96.8168 35.2687 95.0336 32.4494C94.5277 31.6495 89.6122 23.1816 93.4771 25.783C97.2604 28.3294 100.412 32.1844 103.11 35.8267C105.069 38.472 102.358 31.4135 102.141 30.6286C102.034 30.2445 100.402 23.6139 101.436 23.7566C103.385 24.0254 105.931 32.0204 107.368 31.4216C107.808 31.2381 109.189 26.355 109.512 27.8093C109.903 29.5689 110.027 31.3229 110.598 33.0368" stroke="#9AB338" stroke-width="2" stroke-linecap="round"/>
<path d="M171.39 51.0098C168.909 47.6746 166.195 44.5864 164.517 40.7899C164.331 40.3676 163.46 39.8538 164.136 39.9382C165.375 40.0931 166.729 40.3419 167.689 41.201C169.744 43.0393 170.512 43.8675 169.51 40.6724C167.864 35.4265 171.949 42.4151 172.124 42.4345C172.763 42.5055 169.921 4.93052 175.56 43.4623C175.959 46.1892 175.539 49.7881 177.85 46.8983C179.059 45.3876 181.399 43.4561 183.342 43.0512C185.591 42.5828 181.676 49.7516 181.433 50.4812" stroke="#9AB338" stroke-width="2" stroke-linecap="round"/>
</svg>
