<svg width="25" height="25" viewBox="0 0 25 25" fill="none" xmlns="http://www.w3.org/2000/svg">
<path d="M6.48116 1.94666C6.23787 0.932694 7.51453 0.269873 8.20387 1.05226L11.6787 4.99608C12.0936 5.46697 12.8346 5.44375 13.2192 4.94781L16.4064 0.837871C17.0421 0.0181147 18.3516 0.589122 18.1834 1.61277L17.3216 6.85972C17.2216 7.46849 17.6913 8.02172 18.3082 8.02181L23.5945 8.02259C24.6288 8.02275 24.9824 9.40099 24.0759 9.89903L19.4883 12.4195C18.9434 12.7189 18.8008 13.4376 19.1902 13.9222L22.5118 18.057C23.1638 18.8687 22.2961 20.0122 21.3389 19.6027L16.5481 17.5534C15.9687 17.3056 15.3072 17.649 15.1765 18.2655L14.0962 23.363C13.8804 24.3815 12.4459 24.4332 12.1572 23.433L10.6865 18.3372C10.5141 17.7399 9.84422 17.443 9.28589 17.7164L4.58484 20.0185C3.65593 20.4733 2.7321 19.3912 3.32707 18.5451L6.36795 14.221C6.72283 13.7164 6.54059 13.0139 5.98514 12.7454L1.19777 10.4315C0.263786 9.98001 0.550157 8.58049 1.5864 8.53219L6.7817 8.29007C7.40861 8.26085 7.85398 7.6681 7.70755 7.05783L6.48116 1.94666Z" fill="#9AB338"/>
</svg>
